# xmcd
#
# Track frame offsets: 
#        182
#        16517
#        35767
#        60032
#        88622
#        109370
#        133042
#        156707
#        180150
#
# Disc length: 2636 seconds
#
# Revision: 1
# Processed by: cddbd v1.5.2PL0 Copyright (c) Steve Scherf et al.
# Submitted via: ExactAudioCopy v1.0b3
#
DISCID=690a4a09
DTITLE=Muddy Waters - The Woodstock Album
DYEAR=1975
DGENRE=Blues
TTITLE0=Why Are People Like That?
TTITLE1=Going Down Main Street
TTITLE2=Born With Nothing
TTITLE3=Caldonia
TTITLE4=Funny Sounds
TTITLE5=Love, Deep As The Ocean
TTITLE6=Let The Good Time Roll
TTITLE7=Kansas City
TTITLE8=Fox Squirrel
EXTD=YEAR: 1975
EXTT0=
EXTT1=
EXTT2=
EXTT3=
EXTT4=
EXTT5=
EXTT6=
EXTT7=
EXTT8=
PLAYORDER=
